<svg width="15"  height="15" viewBox="0 0 30 30" fill="none" xmlns="http://www.w3.org/2000/svg">
<path d="M15.9934 2.66669C8.62669 2.66669 2.66669 8.63335 2.66669 16C2.66669 23.3667 8.62669 29.3334 15.9934 29.3334C23.36 29.3334 29.3334 23.3667 29.3334 16C29.3334 8.63335 23.36 2.66669 15.9934 2.66669ZM16 26.6667C10.1067 26.6667 5.33335 21.8934 5.33335 16C5.33335 10.1067 10.1067 5.33335 16 5.33335C21.8934 5.33335 26.6667 10.1067 26.6667 16C26.6667 21.8934 21.8934 26.6667 16 26.6667Z" fill="#948888"/>
<path d="M16.6666 9.33331H14.6666V17.3333L21.66 21.5333L22.6666 19.8933L16.6666 16.3333V9.33331Z" fill="#948888"/>
</svg>
